<?xml version="1.0" encoding="UTF-8" standalone="no"?>
<svg
   xmlns:dc="http://purl.org/dc/elements/1.1/"
   xmlns:cc="http://creativecommons.org/ns#"
   xmlns:rdf="http://www.w3.org/1999/02/22-rdf-syntax-ns#"
   xmlns:svg="http://www.w3.org/2000/svg"
   xmlns="http://www.w3.org/2000/svg"
   xmlns:sodipodi="http://sodipodi.sourceforge.net/DTD/sodipodi-0.dtd"
   xmlns:inkscape="http://www.inkscape.org/namespaces/inkscape"
   width="100%"
   height="100%"
   viewBox="0 0 800 400"
   preserveAspectRatio="none"
   id="svg2"
   version="1.1"
   inkscape:version="0.48.4 r9939"
   sodipodi:docname="header.svg">
  <metadata
     id="metadata16">
    <rdf:RDF>
      <cc:Work
         rdf:about="">
        <dc:format>image/svg+xml</dc:format>
        <dc:type
           rdf:resource="http://purl.org/dc/dcmitype/StillImage" />
      </cc:Work>
    </rdf:RDF>
  </metadata>
  <defs
     id="defs14" />
  <sodipodi:namedview
     pagecolor="#ffffff"
     bordercolor="#666666"
     borderopacity="1"
     objecttolerance="10"
     gridtolerance="10"
     guidetolerance="10"
     inkscape:pageopacity="0"
     inkscape:pageshadow="2"
     inkscape:window-width="1855"
     inkscape:window-height="1056"
     id="namedview12"
     showgrid="false"
     fit-margin-top="0"
     fit-margin-left="0"
     fit-margin-right="0"
     fit-margin-bottom="0"
     inkscape:zoom="0.834386"
     inkscape:cx="675.8191"
     inkscape:cy="147.15705"
     inkscape:window-x="65"
     inkscape:window-y="24"
     inkscape:window-maximized="1"
     inkscape:current-layer="svg2" />
  <polygon
     points="0,0 300,0 0,250 "
     id="polygon4"
     style="opacity:0.03" />
  <polygon
     points="100,400 400,150 400,400 "
     id="polygon6"
     style="opacity:0.06" />
  <line
     x1="300"
     y1="0"
     x2="0"
     y2="250"
     style="stroke-width:0.25"
     id="line8" />
  <line
     x1="100"
     y1="400"
     x2="400"
     y2="150"
     style="stroke-width:0.25"
     id="line10" />
  <polygon
     points="0,250 0,0 300,0 "
     id="polygon4-8"
     transform="matrix(-1,0,0,1,800,0)"
     style="opacity:0.03" />
  <polygon
     points="400,400 100,400 400,150 "
     id="polygon6-5"
     transform="matrix(-1,0,0,1,800,0)"
     style="opacity:0.06" />
  <line
     x1="500.00003"
     y1="9.8276942e-06"
     x2="800"
     y2="249.99998"
     style="stroke-width:0.25"
     id="line8-0" />
  <line
     x1="700"
     y1="399.99997"
     x2="400.00003"
     y2="150.00002"
     style="stroke-width:0.25"
     id="line10-7" />
  <polygon
     style="opacity:0.03"
     id="polygon3788"
     points="0,0 300,0 0,250 "
     transform="matrix(1,0,0,-1,0,400)" />
  <polygon
     style="opacity:0.06"
     id="polygon3790"
     points="100,400 400,150 400,400 "
     transform="matrix(1,0,0,-1,0,400)" />
  <polygon
     style="opacity:0.03"
     id="polygon3792"
     points="0,250 0,0 300,0 "
     transform="matrix(-1,0,0,-1,800,400)" />
  <polygon
     style="opacity:0.06"
     id="polygon3794"
     points="400,400 100,400 400,150 "
     transform="matrix(-1,0,0,-1,800,400)" />
</svg>
